<svg width="32" height="33" viewBox="0 0 32 33" fill="none" xmlns="http://www.w3.org/2000/svg">
<g clip-path="url(#clip0_500_3794)">
<path d="M16 30.2318C8.636 30.2318 2.66667 24.2624 2.66667 16.8984C2.66667 9.53444 8.636 3.5651 16 3.5651C23.364 3.5651 29.3333 9.53444 29.3333 16.8984C29.3333 24.2624 23.364 30.2318 16 30.2318ZM16 27.5651C18.829 27.5651 21.5421 26.4413 23.5425 24.4409C25.5429 22.4405 26.6667 19.7274 26.6667 16.8984C26.6667 14.0695 25.5429 11.3564 23.5425 9.35597C21.5421 7.35558 18.829 6.23177 16 6.23177C13.171 6.23177 10.4579 7.35558 8.45753 9.35597C6.45714 11.3564 5.33333 14.0695 5.33333 16.8984C5.33333 19.7274 6.45714 22.4405 8.45753 24.4409C10.4579 26.4413 13.171 27.5651 16 27.5651ZM14.6707 22.2318L9.01333 16.5744L10.8987 14.6891L14.6707 18.4611L22.212 10.9184L24.0987 12.8038L14.6707 22.2318Z" fill="#006969"/>
</g>
<defs>
<clipPath id="clip0_500_3794">
<rect width="32" height="32" fill="white" transform="translate(0 0.898438)"/>
</clipPath>
</defs>
</svg>
