<svg width="56" height="56" viewBox="0 0 56 56" fill="none" xmlns="http://www.w3.org/2000/svg">
<path fill-rule="evenodd" clip-rule="evenodd" d="M0.0731201 28.11C0.0731201 12.7066 12.56 0.219727 27.9634 0.219727C43.3667 0.219727 55.8536 12.7066 55.8536 28.11C55.8536 43.5133 43.3667 56.0002 27.9634 56.0002C12.56 56.0002 0.0731201 43.5133 0.0731201 28.11ZM27.9634 14.1649C35.6332 14.1649 41.9085 20.4402 41.9085 28.11C41.9085 35.0825 36.8534 41.0092 29.8808 42.0551V32.1192H33.1928L33.8901 28.11H30.0551V25.4953C30.0551 24.4494 30.5781 23.4035 32.3212 23.4035H34.0644V19.9172C34.0644 19.9172 32.4955 19.5686 30.9267 19.5686C27.7891 19.5686 25.6973 21.486 25.6973 24.9723V28.11H22.211V32.1192H25.6973V41.8808C19.0734 40.8349 14.0182 35.0825 14.0182 28.11C14.0182 20.4402 20.2936 14.1649 27.9634 14.1649Z" fill="#DE4A19"/>
</svg>
