<svg width="87" height="87" viewBox="0 0 87 87" fill="none" xmlns="http://www.w3.org/2000/svg">
<g clip-path="url(#clip0_3_7120)">
<path d="M2.85352 58.1238C8.94541 74.542 24.749 86.2426 43.2871 86.2426C61.8252 86.2426 77.6288 74.542 83.7207 58.1238L43.2871 54.3748L2.85352 58.1238Z" fill="#FFDA44"/>
<path d="M43.2871 0.0119629C24.749 0.0119629 8.94541 11.7124 2.85352 28.1307L43.2871 31.8798L83.7207 28.1306C77.6288 11.7124 61.8252 0.0119629 43.2871 0.0119629Z" fill="black"/>
<path d="M2.84043 28.1307C1.1074 32.8015 0.158691 37.8534 0.158691 43.1273C0.158691 48.4012 1.1074 53.4531 2.84043 58.1238H83.7078C85.4408 53.4531 86.3894 48.4012 86.3894 43.1273C86.3894 37.8534 85.4408 32.8015 83.7076 28.1307H2.84043Z" fill="#D80027"/>
<circle cx="43.2917" cy="43.1284" r="43.1154" fill="url(#paint0_linear_3_7120)" style="mix-blend-mode:overlay"/>
</g>
<defs>
<linearGradient id="paint0_linear_3_7120" x1="86.4071" y1="0.0130048" x2="-15.944" y2="57.5855" gradientUnits="userSpaceOnUse">
<stop stop-color="white" stop-opacity="0.3"/>
<stop offset="0.262741" stop-opacity="0.27"/>
<stop offset="0.369956" stop-color="white" stop-opacity="0.26"/>
<stop offset="0.487001" stop-opacity="0.55"/>
<stop offset="0.594445" stop-opacity="0.24"/>
<stop offset="0.736408" stop-color="white" stop-opacity="0.3"/>
<stop offset="0.901459" stop-color="#272727" stop-opacity="0.22"/>
<stop offset="1" stop-opacity="0.2"/>
</linearGradient>
<clipPath id="clip0_3_7120">
<rect width="86.2307" height="86.2307" fill="white" transform="translate(0.172852 0.0119629)"/>
</clipPath>
</defs>
</svg>
