<svg width="87" height="87" viewBox="0 0 87 87" fill="none" xmlns="http://www.w3.org/2000/svg">
<g clip-path="url(#clip0_3_7457)">
<rect width="86.2307" height="86.2307" transform="translate(0.300781 0.140869)" fill="url(#paint0_linear_3_7457)" style="mix-blend-mode:overlay"/>
<path d="M43.4308 86.3715C67.2427 86.3715 86.5461 67.0681 86.5461 43.2562C86.5461 19.4443 67.2427 0.140869 43.4308 0.140869C19.6188 0.140869 0.31543 19.4443 0.31543 43.2562C0.31543 67.0681 19.6188 86.3715 43.4308 86.3715Z" fill="#F0F0F0"/>
<path d="M43.4192 0.140869C26.3256 0.140869 11.5559 10.0886 4.58203 24.5105H82.2561C75.2824 10.0886 60.5126 0.140869 43.4192 0.140869Z" fill="#FF9811"/>
<path d="M43.4192 86.3714C60.5126 86.3714 75.2824 76.4237 82.2563 62.0018H4.58203C11.5559 76.4237 26.3256 86.3714 43.4192 86.3714Z" fill="#6DA544"/>
<path d="M43.438 58.2528C51.7203 58.2528 58.4345 51.5386 58.4345 43.2562C58.4345 34.9738 51.7203 28.2596 43.438 28.2596C35.1556 28.2596 28.4414 34.9738 28.4414 43.2562C28.4414 51.5386 35.1556 58.2528 43.438 58.2528Z" fill="#0052B4"/>
<path d="M43.4285 52.629C48.605 52.629 52.8014 48.4327 52.8014 43.2562C52.8014 38.0797 48.605 33.8833 43.4285 33.8833C38.252 33.8833 34.0557 38.0797 34.0557 43.2562C34.0557 48.4327 38.252 52.629 43.4285 52.629Z" fill="#F0F0F0"/>
<path d="M43.4266 31.6902L46.3181 38.2481L53.443 37.4732L49.2096 43.2562L53.443 49.0392L46.3181 48.2643L43.4266 54.8222L40.535 48.2643L33.4102 49.0391L37.6435 43.2562L33.4102 37.4732L40.535 38.2481L43.4266 31.6902Z" fill="#0052B4"/>
<circle cx="43.4904" cy="43.2576" r="43.1154" fill="url(#paint1_linear_3_7457)" style="mix-blend-mode:overlay"/>
</g>
<defs>
<linearGradient id="paint0_linear_3_7457" x1="86.2307" y1="4.28541e-06" x2="-16.1203" y2="57.5724" gradientUnits="userSpaceOnUse">
<stop stop-color="white" stop-opacity="0.3"/>
<stop offset="0.262741" stop-opacity="0.27"/>
<stop offset="0.369956" stop-color="white" stop-opacity="0.26"/>
<stop offset="0.487001" stop-opacity="0.55"/>
<stop offset="0.594445" stop-opacity="0.24"/>
<stop offset="0.736408" stop-color="white" stop-opacity="0.3"/>
<stop offset="0.901459" stop-color="#272727" stop-opacity="0.22"/>
<stop offset="1" stop-opacity="0.2"/>
</linearGradient>
<linearGradient id="paint1_linear_3_7457" x1="86.6058" y1="0.142216" x2="-15.7453" y2="57.7147" gradientUnits="userSpaceOnUse">
<stop stop-color="white" stop-opacity="0.3"/>
<stop offset="0.262741" stop-opacity="0.27"/>
<stop offset="0.369956" stop-color="white" stop-opacity="0.26"/>
<stop offset="0.487001" stop-opacity="0.55"/>
<stop offset="0.594445" stop-opacity="0.24"/>
<stop offset="0.736408" stop-color="white" stop-opacity="0.3"/>
<stop offset="0.901459" stop-color="#272727" stop-opacity="0.22"/>
<stop offset="1" stop-opacity="0.2"/>
</linearGradient>
<clipPath id="clip0_3_7457">
<rect width="86.2307" height="86.2307" fill="white" transform="translate(0.300781 0.140869)"/>
</clipPath>
</defs>
</svg>
