<svg width="56" height="56" viewBox="0 0 56 56" fill="none" xmlns="http://www.w3.org/2000/svg">
<path d="M27.8903 32.9908C25.2755 32.9908 23.0095 30.899 23.0095 28.11C23.0095 25.4953 25.1012 23.2292 27.8903 23.2292C30.505 23.2292 32.771 25.3209 32.771 28.11C32.771 30.7247 30.505 32.9908 27.8903 32.9908Z" fill="#DE4A19"/>
<path fill-rule="evenodd" clip-rule="evenodd" d="M33.8169 16.2566H21.9636C20.5691 16.4309 19.8718 16.6052 19.3489 16.7796C18.6516 16.9539 18.1287 17.3025 17.6057 17.8254C17.1919 18.2392 16.9964 18.653 16.7601 19.1532C16.6978 19.285 16.6325 19.4232 16.5598 19.5686C16.5329 19.6495 16.5017 19.7346 16.4684 19.8257C16.286 20.3239 16.0369 21.0045 16.0369 22.1833V34.0367C16.2112 35.4312 16.3855 36.1284 16.5598 36.6514C16.7342 37.3486 17.0828 37.8716 17.6057 38.3945C18.0195 38.8083 18.4333 39.0038 18.9335 39.2401C19.0654 39.3025 19.2033 39.3676 19.3489 39.4404C19.4298 39.4674 19.5148 39.4985 19.606 39.5319C20.1042 39.7142 20.7848 39.9633 21.9636 39.9633H33.8169C35.2114 39.789 35.9087 39.6147 36.4316 39.4404C37.1289 39.2661 37.6518 38.9174 38.1748 38.3945C38.5886 37.9807 38.7841 37.5669 39.0204 37.0668C39.0827 36.9349 39.1479 36.7969 39.2207 36.6514C39.2476 36.5705 39.2788 36.4854 39.3121 36.3942C39.4945 35.896 39.7436 35.2154 39.7436 34.0367V22.1833C39.5693 20.7888 39.395 20.0915 39.2207 19.5686C39.0464 18.8713 38.6977 18.3484 38.1748 17.8254C37.761 17.4116 37.3472 17.2161 36.847 16.9798C36.7153 16.9176 36.5769 16.8522 36.4316 16.7796C36.3507 16.7526 36.2657 16.7215 36.1745 16.6881C35.6763 16.5057 34.9957 16.2566 33.8169 16.2566ZM27.8903 20.6145C23.7067 20.6145 20.3947 23.9264 20.3947 28.11C20.3947 32.2935 23.7067 35.6055 27.8903 35.6055C32.0738 35.6055 35.3858 32.2935 35.3858 28.11C35.3858 23.9264 32.0738 20.6145 27.8903 20.6145ZM37.3032 20.4402C37.3032 21.4029 36.5228 22.1833 35.5601 22.1833C34.5974 22.1833 33.8169 21.4029 33.8169 20.4402C33.8169 19.4774 34.5974 18.697 35.5601 18.697C36.5228 18.697 37.3032 19.4774 37.3032 20.4402Z" fill="#DE4A19"/>
<path fill-rule="evenodd" clip-rule="evenodd" d="M0 28.11C0 12.7066 12.4869 0.219727 27.8903 0.219727C43.2936 0.219727 55.7805 12.7066 55.7805 28.11C55.7805 43.5133 43.2936 56.0002 27.8903 56.0002C12.4869 56.0002 0 43.5133 0 28.11ZM21.9636 13.6419H33.8169C35.3858 13.8162 36.4316 13.9905 37.3032 14.3392C38.3491 14.8621 39.0464 15.2107 39.9179 16.0823C40.7895 16.9539 41.3124 17.8254 41.6611 18.697C42.0097 19.5686 42.3583 20.6145 42.3583 22.1833V34.0367C42.184 35.6055 42.0097 36.6514 41.6611 37.5229C41.1381 38.5688 40.7895 39.2661 39.9179 40.1376C39.0464 41.0092 38.1748 41.5322 37.3032 41.8808C36.4316 42.2294 35.3858 42.578 33.8169 42.578H21.9636C20.3948 42.4037 19.3489 42.2294 18.4773 41.8808C17.4314 41.3578 16.7342 41.0092 15.8626 40.1376C14.991 39.2661 14.4681 38.3945 14.1194 37.5229C13.7708 36.6514 13.4222 35.6055 13.4222 34.0367V22.1833C13.5965 20.6145 13.7708 19.5686 14.1194 18.697C14.6424 17.6511 14.991 16.9539 15.8626 16.0823C16.7342 15.2107 17.6057 14.6878 18.4773 14.3392C19.3489 13.9905 20.3948 13.6419 21.9636 13.6419Z" fill="#DE4A19"/>
</svg>
