<svg width="30" height="29" viewBox="0 0 30 29" fill="none" xmlns="http://www.w3.org/2000/svg">
<path fill-rule="evenodd" clip-rule="evenodd" d="M15.3429 0.103944C15.2036 0.0405918 15.0523 0.0078125 14.8993 0.0078125C14.7463 0.0078125 14.595 0.0405918 14.4557 0.103944L8.835 2.66252L14.895 5.42252L20.9593 2.66037L15.3429 0.103944ZM7.82786 11.1011V4.5568L13.8279 7.28894V14.5211L8.45143 12.0761C8.26425 11.991 8.10552 11.8538 7.99419 11.6809C7.88286 11.508 7.82363 11.3067 7.82357 11.1011H7.82786ZM15.9707 25.4839V18.3268L21.6536 20.9154V28.1475L16.2836 25.7025C16.1663 25.6492 16.0617 25.5751 15.9707 25.4839ZM23.7964 28.1518V20.9154L29.8029 18.1811V24.7275C29.8028 24.9331 29.7436 25.1344 29.6322 25.3073C29.5209 25.4802 29.3622 25.6174 29.175 25.7025L23.7964 28.1518ZM13.8236 18.3268V25.4925C13.7344 25.5798 13.6307 25.6509 13.5171 25.7025L8.13857 28.1518V20.9154L13.8236 18.3268ZM5.99571 20.9154V28.1475L0.627857 25.7025C0.440676 25.6174 0.281947 25.4802 0.170616 25.3073C0.0592858 25.1344 5.69388e-05 24.9331 0 24.7275V18.1832L6 20.9154H5.99571ZM15.9664 14.5254V7.2868L21.9729 4.55252V11.1011C21.9728 11.3067 21.9136 11.508 21.8022 11.6809C21.6909 11.8538 21.5322 11.991 21.345 12.0761L15.9664 14.5254ZM22.2836 13.7325C22.4229 13.6692 22.5741 13.6364 22.7271 13.6364C22.8802 13.6364 23.0314 13.6692 23.1707 13.7325L28.785 16.2868L22.7207 19.0489L16.6671 16.2868L22.2857 13.7282L22.2836 13.7325ZM6.62786 13.7325C6.76715 13.6692 6.9184 13.6364 7.07143 13.6364C7.22445 13.6364 7.3757 13.6692 7.515 13.7325L13.1293 16.2868L7.06714 19.0511L1.00929 16.2868L6.62786 13.7325Z" fill="white"/>
</svg>
