<svg width="268" height="37" viewBox="0 0 268 37" fill="none" xmlns="http://www.w3.org/2000/svg">
<path d="M267.911 9.63553C265.375 9.83252 262.829 10.2857 260.302 10.1773C242.93 9.43858 225.558 8.17782 208.176 7.89218C190.66 7.60654 173.106 7.80353 155.6 8.6309C140.286 9.34993 124.981 10.8175 109.763 12.7382C96.7838 14.3732 83.939 17.1902 71.0176 19.367C51.9322 22.5977 33.3349 27.8574 14.8525 33.58C12.2778 34.3779 9.79884 35.4811 7.22413 36.2789C4.87914 37.0078 2.917 36.4956 1.47172 34.1513C-0.203277 31.423 0.179576 29.9751 3.16586 29.1674C20.9208 24.41 38.6279 19.4064 56.4786 15.043C65.4375 12.8564 74.6643 11.7631 83.7954 10.3349C91.0793 9.19231 98.3823 7.8035 105.714 7.42921C110.318 7.20267 114.615 5.85329 119.066 5.36081C129.068 4.2675 139.128 3.7947 149.159 3.00673C154.959 2.55364 160.74 1.86417 166.54 1.52928C171.728 1.22394 176.944 1.09589 182.142 1.21408C184.994 1.28303 187.827 2.1104 190.689 2.38619C191.904 2.50439 193.417 2.50437 194.364 1.87399C198.394 -0.795265 202.165 3.184 206.683 1.8149C212.052 0.179853 218.379 1.81493 224.285 2.10057C227.386 2.25817 230.506 2.42562 233.578 2.84916C237.646 3.40074 241.666 4.27734 245.725 4.85847C246.988 5.03576 248.385 4.40536 249.62 4.6516C251.793 5.08499 253.86 6.10938 256.043 6.52306C259.976 7.26179 263.949 7.73458 267.911 8.31571C267.911 8.74909 267.901 9.18248 267.892 9.61587L267.911 9.63553Z" fill="white"/>
</svg>
