<svg width="87" height="87" viewBox="0 0 87 87" fill="none" xmlns="http://www.w3.org/2000/svg">
<g clip-path="url(#clip0_3_5674)">
<path d="M84.0919 58.5465C85.8251 53.8759 86.7736 48.8238 86.7736 43.5499C86.7736 38.2761 85.8251 33.224 84.0919 28.5534L43.6583 24.8042L3.22471 28.5534C1.49151 33.224 0.542969 38.2761 0.542969 43.5499C0.542969 48.8238 1.49151 53.8759 3.22471 58.5465L43.6583 62.2957L84.0919 58.5465Z" fill="#6DA544"/>
<path d="M84.0908 28.5535C77.9989 12.1351 62.1953 0.434692 43.6572 0.434692C25.1191 0.434692 9.31553 12.1351 3.22363 28.5535H84.0908Z" fill="#FFDA44"/>
<path d="M43.6572 86.6652C62.1953 86.6652 77.9989 74.9647 84.0908 58.5464H3.22363C9.31553 74.9647 25.1191 86.6652 43.6572 86.6652Z" fill="#D80027"/>
<circle cx="43.676" cy="43.5501" r="43.1154" fill="url(#paint0_linear_3_5674)" style="mix-blend-mode:overlay"/>
</g>
<defs>
<linearGradient id="paint0_linear_3_5674" x1="86.7914" y1="0.434697" x2="-15.5598" y2="58.0072" gradientUnits="userSpaceOnUse">
<stop stop-color="white" stop-opacity="0.3"/>
<stop offset="0.262741" stop-opacity="0.27"/>
<stop offset="0.369956" stop-color="white" stop-opacity="0.26"/>
<stop offset="0.487001" stop-opacity="0.55"/>
<stop offset="0.594445" stop-opacity="0.24"/>
<stop offset="0.736408" stop-color="white" stop-opacity="0.3"/>
<stop offset="0.901459" stop-color="#272727" stop-opacity="0.22"/>
<stop offset="1" stop-opacity="0.2"/>
</linearGradient>
<clipPath id="clip0_3_5674">
<rect width="86.2307" height="86.2307" fill="white" transform="translate(0.556641 0.43457)"/>
</clipPath>
</defs>
</svg>
