<svg width="25" height="25" viewBox="0 0 25 25" fill="none" xmlns="http://www.w3.org/2000/svg">
<g clip-path="url(#clip0_555_33)">
<path d="M15.4436 14.8984L10.3906 22.8984H8.39062L10.9166 14.8984L5.55663 14.8984L3.89062 17.8984H2.39062L3.39062 13.3984L2.39062 8.89844H3.89062L5.55762 11.8984L10.9176 11.8984L8.39062 3.89844H10.3906L15.4436 11.8984H20.8906C21.2884 11.8984 21.67 12.0565 21.9513 12.3378C22.2326 12.6191 22.3906 13.0006 22.3906 13.3984C22.3906 13.7963 22.2326 14.1778 21.9513 14.4591C21.67 14.7404 21.2884 14.8984 20.8906 14.8984H15.4436Z" fill="white"/>
</g>
<defs>
<clipPath id="clip0_555_33">
<rect width="24" height="24" fill="white" transform="matrix(0 1 -1 0 24.3906 0.898438)"/>
</clipPath>
</defs>
</svg>
