<svg width="87" height="87" viewBox="0 0 87 87" fill="none" xmlns="http://www.w3.org/2000/svg">
<g clip-path="url(#clip0_3_7136)">
<path d="M43.4024 86.2432C67.2144 86.2432 86.5178 66.9398 86.5178 43.1278C86.5178 19.3159 67.2144 0.0125122 43.4024 0.0125122C19.5905 0.0125122 0.287109 19.3159 0.287109 43.1278C0.287109 66.9398 19.5905 86.2432 43.4024 86.2432Z" fill="#F0F0F0"/>
<path d="M43.4024 86.2431C67.2142 86.2431 86.5178 66.9396 86.5178 43.1278C86.5178 37.8539 85.5692 32.8018 83.836 28.1312H2.96885C1.23582 32.8018 0.287109 37.8539 0.287109 43.1278C0.287109 66.9396 19.5907 86.2431 43.4024 86.2431Z" fill="#0052B4"/>
<path d="M43.416 86.2432C61.9541 86.2432 77.7577 74.5427 83.8496 58.1244H2.98242C9.07432 74.5427 24.8779 86.2432 43.416 86.2432Z" fill="#D80027"/>
<path d="M11.4307 24.382V45.8902C11.4307 58.1248 27.4138 61.8737 27.4138 61.8737C27.4138 61.8737 43.3968 58.1248 43.3968 45.8902V24.382H11.4307Z" fill="#F0F0F0"/>
<path d="M15.1924 24.382V45.8902C15.1924 47.3265 15.5114 48.6829 16.1433 49.9546H38.7093C39.3412 48.6831 39.6602 47.3265 39.6602 45.8902V24.382H15.1924Z" fill="#D80027"/>
<path d="M34.9048 39.3786H29.2812V35.6294H33.0304V31.8802H29.2812V28.1312H25.5321V31.8802H21.783V35.6294H25.5321V39.3786H19.9082V43.1278H25.5321V46.877H29.2812V43.1278H34.9048V39.3786Z" fill="#F0F0F0"/>
<path d="M21.2602 55.1883C23.6762 56.7066 26.1583 57.5881 27.4291 57.9802C28.6998 57.5882 31.1819 56.7066 33.5979 55.1883C36.0343 53.657 37.7422 51.9058 38.712 49.9546C37.6423 49.1979 36.3373 48.7516 34.9274 48.7516C34.4141 48.7516 33.9154 48.8124 33.4359 48.9241C32.4198 46.6154 30.1133 45.0024 27.4292 45.0024C24.7451 45.0024 22.4385 46.6154 21.4226 48.9241C20.9431 48.8124 20.4442 48.7516 19.931 48.7516C18.5212 48.7516 17.2161 49.1979 16.1465 49.9546C17.1157 51.9056 18.8237 53.6568 21.2602 55.1883Z" fill="#0052B4"/>
<circle cx="43.4172" cy="43.1292" r="43.1154" fill="url(#paint0_linear_3_7136)" style="mix-blend-mode:overlay"/>
</g>
<defs>
<linearGradient id="paint0_linear_3_7136" x1="86.5326" y1="0.0138287" x2="-15.8185" y2="57.5863" gradientUnits="userSpaceOnUse">
<stop stop-color="white" stop-opacity="0.3"/>
<stop offset="0.262741" stop-opacity="0.27"/>
<stop offset="0.369956" stop-color="white" stop-opacity="0.26"/>
<stop offset="0.487001" stop-opacity="0.55"/>
<stop offset="0.594445" stop-opacity="0.24"/>
<stop offset="0.736408" stop-color="white" stop-opacity="0.3"/>
<stop offset="0.901459" stop-color="#272727" stop-opacity="0.22"/>
<stop offset="1" stop-opacity="0.2"/>
</linearGradient>
<clipPath id="clip0_3_7136">
<rect width="86.2307" height="86.2307" fill="white" transform="translate(0.300781 0.0124512)"/>
</clipPath>
</defs>
</svg>
