<svg width="87" height="87" viewBox="0 0 87 87" fill="none" xmlns="http://www.w3.org/2000/svg">
<g clip-path="url(#clip0_3_7145)">
<path d="M43.4649 86.2432C67.2769 86.2432 86.5803 66.9398 86.5803 43.1278C86.5803 19.3159 67.2769 0.0125122 43.4649 0.0125122C19.653 0.0125122 0.349609 19.3159 0.349609 43.1278C0.349609 66.9398 19.653 86.2432 43.4649 86.2432Z" fill="#F0F0F0"/>
<path d="M83.8985 28.1313H37.8413V16.8837H15.3462V28.1313H3.03135C1.29832 32.8019 0.349609 37.8539 0.349609 43.1278C0.349609 48.4017 1.29832 53.4536 3.03135 58.1244L43.4649 61.8736L83.8985 58.1244C85.6316 53.4536 86.5803 48.4017 86.5803 43.1278C86.5803 37.8539 85.6316 32.8019 83.8985 28.1313Z" fill="#0052B4"/>
<path d="M43.4785 86.2432C62.0166 86.2432 77.8202 74.5427 83.9121 58.1244H3.04492C9.13682 74.5427 24.9404 86.2432 43.4785 86.2432Z" fill="#D80027"/>
<path d="M15.3398 28.1312V31.8802C15.3398 40.4899 26.5874 43.1279 26.5874 43.1279C26.5874 43.1279 37.8349 40.4899 37.8349 31.8802V28.1312L34.0858 31.8803L26.5874 26.2567L19.089 31.8803L15.3398 28.1312Z" fill="#F0F0F0"/>
<circle cx="43.4797" cy="43.1291" r="43.1154" fill="url(#paint0_linear_3_7145)" style="mix-blend-mode:overlay"/>
</g>
<defs>
<linearGradient id="paint0_linear_3_7145" x1="86.5951" y1="0.0136762" x2="-15.756" y2="57.5862" gradientUnits="userSpaceOnUse">
<stop stop-color="white" stop-opacity="0.3"/>
<stop offset="0.262741" stop-opacity="0.27"/>
<stop offset="0.369956" stop-color="white" stop-opacity="0.26"/>
<stop offset="0.487001" stop-opacity="0.55"/>
<stop offset="0.594445" stop-opacity="0.24"/>
<stop offset="0.736408" stop-color="white" stop-opacity="0.3"/>
<stop offset="0.901459" stop-color="#272727" stop-opacity="0.22"/>
<stop offset="1" stop-opacity="0.2"/>
</linearGradient>
<clipPath id="clip0_3_7145">
<rect width="86.2307" height="86.2307" fill="white" transform="translate(0.364258 0.0124512)"/>
</clipPath>
</defs>
</svg>
