<svg width="22" height="23" viewBox="0 0 22 23" fill="none" xmlns="http://www.w3.org/2000/svg">
<g clip-path="url(#clip0_1037_5144)">
<path fill-rule="evenodd" clip-rule="evenodd" d="M20.851 4.484C21.1923 4.82754 21.4375 5.2547 21.5619 5.72273C22.0219 7.45023 22.0219 11.0527 22.0219 11.0527C22.0219 11.0527 22.0219 14.6552 21.5619 16.3827C21.4375 16.8508 21.1923 17.2779 20.851 17.6215C20.5097 17.965 20.0841 18.2129 19.6169 18.3402C17.8969 18.8027 11.0219 18.8027 11.0219 18.8027C11.0219 18.8027 4.14685 18.8027 2.42685 18.3402C1.95962 18.2129 1.53404 17.965 1.1927 17.6215C0.851357 17.2779 0.606231 16.8508 0.481851 16.3827C0.0218506 14.6552 0.0218506 11.0527 0.0218506 11.0527C0.0218506 11.0527 0.0218506 7.45023 0.481851 5.72273C0.606231 5.2547 0.851357 4.82754 1.1927 4.484C1.53404 4.14047 1.95962 3.89261 2.42685 3.76523C4.14685 3.30273 11.0219 3.30273 11.0219 3.30273C11.0219 3.30273 17.8969 3.30273 19.6169 3.76523C20.0841 3.89261 20.5097 4.14047 20.851 4.484ZM14.5219 11.0528L8.77187 7.78151V14.324L14.5219 11.0528Z" fill="white" fill-opacity="0.9"/>
</g>
<defs>
<clipPath id="clip0_1037_5144">
<rect width="22" height="22" fill="white" transform="translate(0 0.0527344)"/>
</clipPath>
</defs>
</svg>
