<svg width="22" height="23" viewBox="0 0 22 23" fill="none" xmlns="http://www.w3.org/2000/svg">
<path d="M16.8623 6.48968C16.1338 6.49111 15.5414 5.90125 15.54 5.17276C15.5386 4.44426 16.1284 3.85192 16.8573 3.8505C17.5861 3.84907 18.1784 4.43927 18.1799 5.16777C18.1809 5.89626 17.5911 6.48825 16.8623 6.48968Z" fill="white" fill-opacity="0.9"/>
<path fill-rule="evenodd" clip-rule="evenodd" d="M11.0105 16.7003C7.89166 16.7064 5.35801 14.183 5.35196 11.0634C5.34589 7.94453 7.86991 5.41048 10.9888 5.40442C14.1084 5.39836 16.6424 7.92314 16.6484 11.0417C16.6545 14.1613 14.1297 16.6943 11.0105 16.7003ZM10.9927 7.38639C8.96835 7.38996 7.32961 9.03476 7.33318 11.0595C7.33709 13.0846 8.98225 14.723 11.0066 14.7191C13.0317 14.7151 14.6704 13.0707 14.6665 11.0456C14.6626 9.02051 13.0174 7.38247 10.9927 7.38639Z" fill="white" fill-opacity="0.9"/>
<path fill-rule="evenodd" clip-rule="evenodd" d="M3.77594 0.64534C4.47449 0.371621 5.27389 0.18415 6.44431 0.128908C7.6176 0.0726009 7.99216 0.0597661 10.9788 0.0540659C13.9662 0.0483657 14.3407 0.0597639 15.514 0.111798C16.6848 0.162407 17.4845 0.347029 18.1845 0.6179C18.9087 0.896961 19.5232 1.27262 20.1355 1.88243C20.7478 2.49294 21.1248 3.10525 21.4074 3.8284C21.6808 4.52767 21.8683 5.32637 21.9239 6.49752C21.9795 7.67044 21.993 8.04467 21.9987 11.0317C22.0044 14.0184 21.9923 14.3933 21.941 15.5673C21.89 16.7374 21.7058 17.5375 21.4349 18.2372C21.1551 18.9614 20.7802 19.5758 20.1704 20.1881C19.5606 20.8008 18.9476 21.1775 18.2244 21.4605C17.5252 21.7335 16.7265 21.921 15.5561 21.9769C14.3828 22.0325 14.0082 22.0457 11.0205 22.0514C8.03421 22.0571 7.65965 22.0457 6.48638 21.994C5.31559 21.9427 4.51547 21.7584 3.81585 21.4879C3.09166 21.2078 2.47722 20.8332 1.86492 20.223C1.25227 19.6129 0.874853 19.0002 0.592587 18.2771C0.318869 17.5782 0.132098 16.7791 0.0761499 15.609C0.0201995 14.4354 0.00701714 14.0604 0.00131914 11.0738C-0.00440086 8.08673 0.00736694 7.71251 0.0586819 6.53921C0.110367 5.36807 0.293917 4.56829 0.564785 3.86795C0.844551 3.14409 1.21948 2.53001 1.83 1.91735C2.4398 1.30505 3.0528 0.92725 3.77594 0.64534ZM4.52974 19.64C4.91786 19.7893 5.50021 19.9675 6.57263 20.0142C7.73306 20.0644 8.08054 20.0755 11.0169 20.0698C13.9544 20.0644 14.3019 20.052 15.462 19.9974C16.5333 19.9465 17.1157 19.7661 17.5027 19.615C18.0163 19.4143 18.382 19.1745 18.7661 18.7899C19.1503 18.4039 19.3881 18.0372 19.5869 17.5236C19.7366 17.1351 19.9145 16.5524 19.9612 15.48C20.0121 14.3202 20.0228 13.9724 20.0171 11.0353C20.0118 8.09884 19.9993 7.75099 19.9441 6.59089C19.8934 5.51918 19.7135 4.93681 19.562 4.55011C19.3613 4.03582 19.1222 3.67087 18.7366 3.2863C18.3509 2.90174 17.9842 2.66473 17.4699 2.46586C17.0825 2.31581 16.4994 2.13832 15.4278 2.09164C14.2673 2.04067 13.9195 2.03032 10.9824 2.03603C8.04597 2.04174 7.6985 2.05349 6.53841 2.10839C5.46636 2.15934 4.8847 2.33933 4.49694 2.49081C3.98372 2.69146 3.61805 2.9299 3.2335 3.31589C2.84965 3.70187 2.61193 4.0679 2.41307 4.58255C2.2641 4.97032 2.08482 5.55339 2.03885 6.62511C1.98823 7.78556 1.97755 8.13342 1.98325 11.0698C1.9886 14.007 2.00107 14.3548 2.0556 15.5142C2.10585 16.5866 2.28725 17.1683 2.43802 17.5564C2.63867 18.0693 2.87782 18.435 3.26309 18.8195C3.64907 19.2026 4.01581 19.4411 4.52974 19.64Z" fill="white" fill-opacity="0.9"/>
</svg>
