<svg width="22" height="23" viewBox="0 0 22 23" fill="none" xmlns="http://www.w3.org/2000/svg">
<path d="M11 0.0527344C17.0751 0.0527344 22 4.97761 22 11.0527C22 16.6767 17.7792 21.3143 12.3327 21.9722V14.4142L15.3084 14.4141L15.9257 11.0527H12.3327V9.86389C12.3327 8.97573 12.5069 8.36084 12.9065 7.968C13.3062 7.57514 13.9314 7.40434 14.8332 7.40434C15.0615 7.40434 15.2716 7.40661 15.458 7.41115C15.7291 7.41775 15.9502 7.42915 16.104 7.44535V4.39817C16.0425 4.38109 15.97 4.36401 15.8886 4.34719C15.7044 4.3091 15.4754 4.27237 15.2291 4.24012C14.7147 4.17272 14.1252 4.12485 13.7128 4.12485C12.0472 4.12485 10.7884 4.48117 9.90981 5.21924C8.84939 6.10998 8.34266 7.55677 8.34266 9.60429V11.0527H6.07437V14.4141H8.34266V21.7288C3.55146 20.5401 0 16.2115 0 11.0527C0 4.97761 4.92487 0.0527344 11 0.0527344Z" fill="white" fill-opacity="0.9"/>
</svg>
