<?xml version="1.0" encoding="UTF-8"?> <svg xmlns="http://www.w3.org/2000/svg" width="98" height="20" viewBox="0 0 98 20" fill="none"><path d="M2.54485 12.1777H0.257812V19.9537H2.54485V12.1777Z" fill="#DE4A19"></path><path d="M11.7421 0.0449219H9.45508V2.33196H11.7421V0.0449219Z" fill="#DE4A19"></path><path d="M2.54485 8.95312H0.257812V11.2402H2.54485V8.95312Z" fill="#DE4A19"></path><path d="M7.14446 7.75H4.85742V19.9556H7.14446V7.75Z" fill="#DE4A19"></path><path d="M7.14446 4.52344H4.85742V6.81047H7.14446V4.52344Z" fill="#DE4A19"></path><path d="M11.7421 3.27148H9.45508V19.9548H11.7421V3.27148Z" fill="#DE4A19"></path><path d="M94.5348 17.2486V6.33949H97.1058V17.2486H94.5348ZM95.8274 4.79119C95.4202 4.79119 95.0698 4.65625 94.7763 4.38636C94.4827 4.11174 94.3359 3.78267 94.3359 3.39915C94.3359 3.01089 94.4827 2.68182 94.7763 2.41193C95.0698 2.13731 95.4202 2 95.8274 2C96.2393 2 96.5897 2.13731 96.8785 2.41193C97.1721 2.68182 97.3189 3.01089 97.3189 3.39915C97.3189 3.78267 97.1721 4.11174 96.8785 4.38636C96.5897 4.65625 96.2393 4.79119 95.8274 4.79119Z" fill="black" fill-opacity="0.9"></path><path d="M77.5391 17.2486V2.70312H86.9993V4.91193H80.174V8.8608H86.5092V11.0696H80.174V15.0398H87.0561V17.2486H77.5391Z" fill="black" fill-opacity="0.9"></path><path d="M66.2109 17.2486V2.70312H68.8459V15.0398H75.2521V17.2486H66.2109Z" fill="black" fill-opacity="0.9"></path><path d="M53.3398 17.2486V2.70312H58.7944C59.9118 2.70312 60.8493 2.91146 61.6069 3.32812C62.3692 3.74479 62.9445 4.31771 63.3327 5.04688C63.7257 5.77131 63.9222 6.59517 63.9222 7.51847C63.9222 8.45123 63.7257 9.27983 63.3327 10.0043C62.9398 10.7287 62.3597 11.2992 61.5927 11.7159C60.8256 12.1278 59.881 12.3338 58.7589 12.3338H55.1438V10.1676H58.4038C59.0572 10.1676 59.5922 10.054 60.0089 9.8267C60.4255 9.59943 60.7333 9.28693 60.9322 8.8892C61.1358 8.49148 61.2376 8.03456 61.2376 7.51847C61.2376 7.00237 61.1358 6.54782 60.9322 6.15483C60.7333 5.76184 60.4232 5.45644 60.0018 5.23864C59.5851 5.0161 59.0477 4.90483 58.3896 4.90483H55.9748V17.2486H53.3398Z" fill="black" fill-opacity="0.9"></path><path d="M50.4865 2.70312V17.2486H47.8516V2.70312H50.4865Z" fill="black" fill-opacity="0.9"></path><path d="M34.8438 17.2486V2.70312H40.2983C41.4157 2.70312 42.3532 2.89725 43.1108 3.28551C43.8731 3.67377 44.4484 4.21828 44.8366 4.91903C45.2296 5.61506 45.4261 6.42708 45.4261 7.35511C45.4261 8.28788 45.2273 9.09754 44.8295 9.78409C44.4366 10.4659 43.8565 10.9938 43.0895 11.3679C42.3224 11.7372 41.3802 11.9219 40.2628 11.9219H36.3778V9.73438H39.9077C40.5611 9.73438 41.0961 9.64441 41.5128 9.46449C41.9295 9.27983 42.2372 9.01231 42.4361 8.66193C42.6397 8.30682 42.7415 7.87121 42.7415 7.35511C42.7415 6.83902 42.6397 6.39867 42.4361 6.03409C42.2325 5.66477 41.9223 5.38542 41.5057 5.19602C41.089 5.00189 40.5516 4.90483 39.8935 4.90483H37.4787V17.2486H34.8438ZM42.358 10.6577L45.9588 17.2486H43.0185L39.4815 10.6577H42.358Z" fill="black" fill-opacity="0.9"></path><path d="M21 4.91193V2.70312H32.6051V4.91193H28.1094V17.2486H25.4957V4.91193H21Z" fill="black" fill-opacity="0.9"></path></svg> 