<svg width="100" height="40" viewBox="0 0 100 40" fill="none" xmlns="http://www.w3.org/2000/svg">
<path d="M6.5763 15.9292H4.35547V18.1501H6.5763V15.9292Z" fill="url(#paint0_linear_7619_88853)"/>
<path d="M6.57673 19.0542H4.35547V26.6067H6.57673V19.0542Z" fill="url(#paint1_linear_7619_88853)"/>
<path d="M11.0539 11.6219H8.83305V13.8428H11.0539V11.6219Z" fill="url(#paint2_linear_7619_88853)"/>
<path d="M11.0535 14.7578H8.8321V26.6134H11.0535V14.7578Z" fill="url(#paint3_linear_7619_88853)"/>
<path d="M15.5275 7.27344H13.3066V9.49436H15.5275V7.27344Z" fill="url(#paint4_linear_7619_88853)"/>
<path d="M15.5281 10.4053H13.3066V26.6103H15.5281V10.4053Z" fill="url(#paint5_linear_7619_88853)"/>
<path d="M22.0917 12.5836V10.4381H33.364V12.5836H28.9972V24.5664H26.4585V12.5836H22.0917ZM35.537 24.5664V10.4381H40.8351C41.9205 10.4381 42.8311 10.6267 43.5669 11.0038C44.3074 11.3809 44.8662 11.9098 45.2433 12.5905C45.625 13.2666 45.8159 14.0553 45.8159 14.9567C45.8159 15.8627 45.6227 16.6492 45.2364 17.316C44.8547 17.9783 44.2913 18.4911 43.5462 18.8544C42.8012 19.2131 41.886 19.3925 40.8006 19.3925H37.0271V17.2677H40.4557C41.0903 17.2677 41.61 17.1803 42.0148 17.0056C42.4195 16.8262 42.7184 16.5664 42.9116 16.226C43.1093 15.8811 43.2082 15.458 43.2082 14.9567C43.2082 14.4554 43.1093 14.0277 42.9116 13.6736C42.7138 13.3148 42.4126 13.0435 42.0079 12.8595C41.6031 12.671 41.0811 12.5767 40.4419 12.5767H38.0964V24.5664H35.537ZM42.8357 18.1645L46.3333 24.5664H43.4772L40.0418 18.1645H42.8357ZM50.7311 10.4381V24.5664H48.1717V10.4381H50.7311ZM53.5026 24.5664V10.4381H58.8007C59.8861 10.4381 60.7967 10.6405 61.5325 11.0452C62.273 11.4499 62.8317 12.0064 63.2089 12.7147C63.5906 13.4183 63.7815 14.2186 63.7815 15.1154C63.7815 16.0214 63.5906 16.8262 63.2089 17.5299C62.8271 18.2335 62.2638 18.7877 61.5187 19.1924C60.7737 19.5925 59.8562 19.7926 58.7662 19.7926H55.2548V17.6885H58.4213C59.0559 17.6885 59.5756 17.5782 59.9803 17.3574C60.3851 17.1367 60.684 16.8331 60.8772 16.4468C61.0749 16.0605 61.1738 15.6167 61.1738 15.1154C61.1738 14.6141 61.0749 14.1726 60.8772 13.7908C60.684 13.4091 60.3828 13.1125 59.9734 12.9009C59.5687 12.6848 59.0467 12.5767 58.4075 12.5767H56.062V24.5664H53.5026ZM66.0045 24.5664V10.4381H68.5639V22.421H74.7864V24.5664H66.0045ZM77.0077 24.5664V10.4381H86.1966V12.5836H79.5671V16.4192H85.7206V18.5647H79.5671V22.421H86.2518V24.5664H77.0077ZM93.516 24.5664V13.9702H96.0133V24.5664H93.516ZM94.7715 12.4663C94.376 12.4663 94.0357 12.3353 93.7505 12.0731C93.4654 11.8064 93.3228 11.4867 93.3228 11.1142C93.3228 10.7371 93.4654 10.4174 93.7505 10.1553C94.0357 9.88856 94.376 9.75519 94.7715 9.75519C95.1717 9.75519 95.512 9.88856 95.7925 10.1553C96.0777 10.4174 96.2202 10.7371 96.2202 11.1142C96.2202 11.4867 96.0777 11.8064 95.7925 12.0731C95.512 12.3353 95.1717 12.4663 94.7715 12.4663Z" fill="black" fill-opacity="0.9"/>
<path d="M3.59019 32.4705V37.1602H2.88261V32.4705H3.59019ZM8.51219 32.4705V37.1602H7.86187L5.4781 33.7208H5.43459V37.1602H4.72702V32.4705H5.38192L7.76798 35.9145H7.81149V32.4705H8.51219ZM9.65074 37.1602V32.4705H12.5589V33.0796H10.3583V34.5085H12.3505V35.1153H10.3583V37.1602H9.65074ZM17.6091 34.8153C17.6091 35.316 17.5175 35.7465 17.3343 36.1068C17.1512 36.4656 16.9 36.7419 16.581 36.9357C16.2634 37.1281 15.9024 37.2243 15.4979 37.2243C15.0918 37.2243 14.7292 37.1281 14.4102 36.9357C14.0926 36.7419 13.8423 36.4648 13.6591 36.1045C13.4759 35.7442 13.3843 35.3145 13.3843 34.8153C13.3843 34.3146 13.4759 33.8849 13.6591 33.5261C13.8423 33.1658 14.0926 32.8895 14.4102 32.6972C14.7292 32.5033 15.0918 32.4064 15.4979 32.4064C15.9024 32.4064 16.2634 32.5033 16.581 32.6972C16.9 32.8895 17.1512 33.1658 17.3343 33.5261C17.5175 33.8849 17.6091 34.3146 17.6091 34.8153ZM16.9084 34.8153C16.9084 34.4337 16.8466 34.1123 16.723 33.8513C16.6008 33.5887 16.4329 33.3902 16.2192 33.2559C16.007 33.12 15.7665 33.0521 15.4979 33.0521C15.2277 33.0521 14.9865 33.12 14.7743 33.2559C14.5621 33.3902 14.3941 33.5887 14.2705 33.8513C14.1484 34.1123 14.0873 34.4337 14.0873 34.8153C14.0873 35.197 14.1484 35.5191 14.2705 35.7816C14.3941 36.0427 14.5621 36.2411 14.7743 36.377C14.9865 36.5114 15.2277 36.5785 15.4979 36.5785C15.7665 36.5785 16.007 36.5114 16.2192 36.377C16.4329 36.2411 16.6008 36.0427 16.723 35.7816C16.8466 35.5191 16.9084 35.197 16.9084 34.8153ZM18.5977 37.1602V32.4705H20.2693C20.6326 32.4705 20.9341 32.5331 21.1738 32.6582C21.415 32.7834 21.5952 32.9567 21.7142 33.178C21.8333 33.3979 21.8928 33.6521 21.8928 33.9406C21.8928 34.2276 21.8325 34.4802 21.7119 34.6985C21.5929 34.9153 21.4127 35.084 21.1715 35.2046C20.9319 35.3252 20.6303 35.3855 20.267 35.3855H19.0007V34.7764H20.2029C20.4319 34.7764 20.6181 34.7436 20.7616 34.6779C20.9067 34.6123 21.0128 34.5169 21.0799 34.3917C21.1471 34.2665 21.1807 34.1161 21.1807 33.9406C21.1807 33.7635 21.1463 33.6101 21.0776 33.4803C21.0105 33.3506 20.9044 33.2513 20.7593 33.1826C20.6158 33.1124 20.4273 33.0773 20.1937 33.0773H19.3053V37.1602H18.5977ZM20.9128 35.0443L22.0714 37.1602H21.2654L20.1296 35.0443H20.9128ZM22.8602 32.4705H23.7189L25.2119 36.116H25.2669L26.7599 32.4705H27.6186V37.1602H26.9454V33.7665H26.9019L25.5188 37.1533H24.96L23.577 33.7643H23.5334V37.1602H22.8602V32.4705ZM30.9628 35.5641C30.8376 35.5641 30.73 35.5198 30.6399 35.4313C30.5498 35.3412 30.5048 35.2328 30.5048 35.1061C30.5048 34.981 30.5498 34.8741 30.6399 34.7855C30.73 34.6955 30.8376 34.6504 30.9628 34.6504C31.088 34.6504 31.1956 34.6955 31.2856 34.7855C31.3757 34.8741 31.4208 34.981 31.4208 35.1061C31.4208 35.1901 31.3994 35.2672 31.3566 35.3374C31.3154 35.4061 31.2605 35.4611 31.1918 35.5023C31.1231 35.5435 31.0467 35.5641 30.9628 35.5641ZM35.0197 32.4705V37.1602H34.3121V32.4705H35.0197ZM39.9417 32.4705V37.1602H39.2914L36.9076 33.7208H36.8641V37.1602H36.1565V32.4705H36.8114L39.1975 35.9145H39.241V32.4705H39.9417ZM43.638 33.7024C43.6136 33.4857 43.5129 33.3177 43.3358 33.1987C43.1587 33.0781 42.9358 33.0178 42.6671 33.0178C42.4748 33.0178 42.3084 33.0483 42.1679 33.1094C42.0275 33.1689 41.9183 33.2513 41.8405 33.3567C41.7641 33.4605 41.726 33.5788 41.726 33.7116C41.726 33.823 41.7519 33.9192 41.8038 34.0001C41.8573 34.081 41.9267 34.149 42.0122 34.2039C42.0992 34.2573 42.1924 34.3024 42.2916 34.339C42.3908 34.3741 42.4862 34.4031 42.5778 34.426L43.0358 34.5451C43.1854 34.5817 43.3388 34.6314 43.4961 34.694C43.6533 34.7565 43.7991 34.839 43.9334 34.9413C44.0678 35.0435 44.1762 35.1702 44.2586 35.3214C44.3426 35.4725 44.3845 35.6534 44.3845 35.8641C44.3845 36.1297 44.3158 36.3656 44.1784 36.5717C44.0426 36.7777 43.8449 36.9403 43.5854 37.0594C43.3274 37.1785 43.0152 37.238 42.6488 37.238C42.2977 37.238 41.9939 37.1823 41.7374 37.0709C41.481 36.9594 41.2802 36.8014 41.1352 36.5968C40.9902 36.3908 40.91 36.1465 40.8948 35.8641H41.6046C41.6184 36.0335 41.6733 36.1747 41.7695 36.2877C41.8672 36.3992 41.9916 36.4824 42.1427 36.5373C42.2954 36.5907 42.4626 36.6175 42.6442 36.6175C42.8442 36.6175 43.0221 36.5862 43.1778 36.5236C43.335 36.4595 43.4587 36.3709 43.5487 36.2579C43.6388 36.1434 43.6838 36.0099 43.6838 35.8572C43.6838 35.7183 43.6441 35.6046 43.5648 35.516C43.4869 35.4275 43.3808 35.3542 43.2465 35.2962C43.1137 35.2382 42.9633 35.187 42.7954 35.1428L42.2412 34.9916C41.8657 34.8894 41.568 34.739 41.3482 34.5405C41.1299 34.3421 41.0207 34.0795 41.0207 33.7528C41.0207 33.4826 41.094 33.2467 41.2405 33.0452C41.3871 32.8437 41.5855 32.6873 41.8359 32.5758C42.0863 32.4628 42.3687 32.4064 42.6832 32.4064C43.0007 32.4064 43.2808 32.4621 43.5235 32.5735C43.7678 32.685 43.9601 32.8384 44.1006 33.0338C44.241 33.2277 44.3143 33.4505 44.3204 33.7024H43.638ZM45.3365 37.1602V32.4705H47.0081C47.3729 32.4705 47.6752 32.5369 47.9149 32.6697C48.1545 32.8025 48.3339 32.9842 48.453 33.2147C48.5721 33.4437 48.6316 33.7017 48.6316 33.9887C48.6316 34.2772 48.5713 34.5367 48.4507 34.7672C48.3316 34.9962 48.1515 35.1779 47.9103 35.3122C47.6706 35.445 47.3691 35.5114 47.0058 35.5114H45.8563V34.9115H46.9417C47.1722 34.9115 47.3592 34.8718 47.5027 34.7924C47.6462 34.7115 47.7515 34.6016 47.8187 34.4627C47.8859 34.3238 47.9195 34.1658 47.9195 33.9887C47.9195 33.8116 47.8859 33.6543 47.8187 33.517C47.7515 33.3796 47.6454 33.2719 47.5004 33.1941C47.3569 33.1162 47.1676 33.0773 46.9325 33.0773H46.044V37.1602H45.3365ZM50.2751 32.4705V37.1602H49.5675V32.4705H50.2751ZM51.4119 37.1602V32.4705H53.0835C53.4468 32.4705 53.7483 32.5331 53.988 32.6582C54.2292 32.7834 54.4094 32.9567 54.5284 33.178C54.6475 33.3979 54.707 33.6521 54.707 33.9406C54.707 34.2276 54.6467 34.4802 54.5261 34.6985C54.4071 34.9153 54.2269 35.084 53.9857 35.2046C53.7461 35.3252 53.4446 35.3855 53.0812 35.3855H51.8149V34.7764H53.0171C53.2461 34.7764 53.4323 34.7436 53.5758 34.6779C53.7209 34.6123 53.827 34.5169 53.8941 34.3917C53.9613 34.2665 53.9949 34.1161 53.9949 33.9406C53.9949 33.7635 53.9605 33.6101 53.8918 33.4803C53.8247 33.3506 53.7186 33.2513 53.5736 33.1826C53.4301 33.1124 53.2415 33.0773 53.008 33.0773H52.1195V37.1602H51.4119ZM53.727 35.0443L54.8857 37.1602H54.0796L52.9438 35.0443H53.727ZM55.6744 37.1602V32.4705H58.6146V33.0796H56.382V34.5085H58.4612V35.1153H56.382V36.551H58.6421V37.1602H55.6744ZM61.8752 35.5641C61.7501 35.5641 61.6424 35.5198 61.5524 35.4313C61.4623 35.3412 61.4173 35.2328 61.4173 35.1061C61.4173 34.981 61.4623 34.8741 61.5524 34.7855C61.6424 34.6955 61.7501 34.6504 61.8752 34.6504C62.0004 34.6504 62.108 34.6955 62.1981 34.7855C62.2882 34.8741 62.3332 34.981 62.3332 35.1061C62.3332 35.1901 62.3118 35.2672 62.2691 35.3374C62.2279 35.4061 62.1729 35.4611 62.1042 35.5023C62.0355 35.5435 61.9592 35.5641 61.8752 35.5641ZM65.9321 32.4705V37.1602H65.2246V32.4705H65.9321ZM70.8541 32.4705V37.1602H70.2038L67.82 33.7208H67.7765V37.1602H67.069V32.4705H67.7239L70.1099 35.9145H70.1534V32.4705H70.8541ZM75.7779 32.4705V37.1602H75.1276L72.7438 33.7208H72.7003V37.1602H71.9927V32.4705H72.6476L75.0337 35.9145H75.0772V32.4705H75.7779ZM80.9901 34.8153C80.9901 35.316 80.8985 35.7465 80.7153 36.1068C80.5321 36.4656 80.281 36.7419 79.962 36.9357C79.6444 37.1281 79.2834 37.2243 78.8789 37.2243C78.4728 37.2243 78.1102 37.1281 77.7912 36.9357C77.4736 36.7419 77.2233 36.4648 77.0401 36.1045C76.8569 35.7442 76.7653 35.3145 76.7653 34.8153C76.7653 34.3146 76.8569 33.8849 77.0401 33.5261C77.2233 33.1658 77.4736 32.8895 77.7912 32.6972C78.1102 32.5033 78.4728 32.4064 78.8789 32.4064C79.2834 32.4064 79.6444 32.5033 79.962 32.6972C80.281 32.8895 80.5321 33.1658 80.7153 33.5261C80.8985 33.8849 80.9901 34.3146 80.9901 34.8153ZM80.2894 34.8153C80.2894 34.4337 80.2276 34.1123 80.1039 33.8513C79.9818 33.5887 79.8139 33.3902 79.6002 33.2559C79.388 33.12 79.1475 33.0521 78.8789 33.0521C78.6086 33.0521 78.3674 33.12 78.1553 33.2559C77.9431 33.3902 77.7751 33.5887 77.6515 33.8513C77.5293 34.1123 77.4683 34.4337 77.4683 34.8153C77.4683 35.197 77.5293 35.5191 77.6515 35.7816C77.7751 36.0427 77.9431 36.2411 78.1553 36.377C78.3674 36.5114 78.6086 36.5785 78.8789 36.5785C79.1475 36.5785 79.388 36.5114 79.6002 36.377C79.8139 36.2411 79.9818 36.0427 80.1039 35.7816C80.2276 35.5191 80.2894 35.197 80.2894 34.8153ZM82.1556 32.4705L83.4608 36.29H83.5135L84.8187 32.4705H85.5835L83.8959 37.1602H83.0784L81.3908 32.4705H82.1556ZM86.2847 37.1602H85.5336L87.2213 32.4705H88.0388L89.7264 37.1602H88.9753L87.6495 33.3223H87.6128L86.2847 37.1602ZM86.4107 35.3237H88.8471V35.919H86.4107V35.3237ZM89.7246 33.0796V32.4705H93.3541V33.0796H91.8908V37.1602H91.1855V33.0796H89.7246ZM94.2625 37.1602V32.4705H97.2027V33.0796H94.9701V34.5085H97.0493V35.1153H94.9701V36.551H97.2302V37.1602H94.2625Z" fill="black"/>
<defs>
<linearGradient id="paint0_linear_7619_88853" x1="8.00511" y1="9.18356" x2="19.1549" y2="11.532" gradientUnits="userSpaceOnUse">
<stop stop-color="#EC712C"/>
<stop offset="0.776219" stop-color="#FF5B00"/>
</linearGradient>
<linearGradient id="paint1_linear_7619_88853" x1="8.00511" y1="9.18356" x2="19.1549" y2="11.532" gradientUnits="userSpaceOnUse">
<stop stop-color="#EC712C"/>
<stop offset="0.776219" stop-color="#FF5B00"/>
</linearGradient>
<linearGradient id="paint2_linear_7619_88853" x1="8.00511" y1="9.18356" x2="19.1549" y2="11.532" gradientUnits="userSpaceOnUse">
<stop stop-color="#EC712C"/>
<stop offset="0.776219" stop-color="#FF5B00"/>
</linearGradient>
<linearGradient id="paint3_linear_7619_88853" x1="8.00511" y1="9.18356" x2="19.1549" y2="11.532" gradientUnits="userSpaceOnUse">
<stop stop-color="#EC712C"/>
<stop offset="0.776219" stop-color="#FF5B00"/>
</linearGradient>
<linearGradient id="paint4_linear_7619_88853" x1="8.00511" y1="9.18356" x2="19.1549" y2="11.532" gradientUnits="userSpaceOnUse">
<stop stop-color="#EC712C"/>
<stop offset="0.776219" stop-color="#FF5B00"/>
</linearGradient>
<linearGradient id="paint5_linear_7619_88853" x1="8.00511" y1="9.18356" x2="19.1549" y2="11.532" gradientUnits="userSpaceOnUse">
<stop stop-color="#EC712C"/>
<stop offset="0.776219" stop-color="#FF5B00"/>
</linearGradient>
</defs>
</svg>
