<svg width="56" height="56" viewBox="0 0 56 56" fill="none" xmlns="http://www.w3.org/2000/svg">
<path fill-rule="evenodd" clip-rule="evenodd" d="M0.219482 28.11C0.219482 12.7066 12.7064 0.219727 28.1097 0.219727C43.5131 0.219727 56 12.7066 56 28.11C56 43.5133 43.5131 56.0002 28.1097 56.0002C12.7064 56.0002 0.219482 43.5133 0.219482 28.11ZM38.7429 20.2658C39.9631 20.0915 41.009 19.9172 42.0549 19.3943C41.3576 20.6145 40.3117 21.6604 39.0915 22.3576C39.4402 30.5504 33.5135 39.4404 22.8803 39.4404C19.7427 39.4404 16.7793 38.3945 14.1646 36.8257C17.1279 37.1743 20.2656 36.3027 22.3574 34.7339C19.7427 34.7339 17.6509 32.9908 16.9536 30.7247C17.8252 30.899 18.6968 30.7247 19.5683 30.5504C16.9536 29.8531 15.0362 27.4127 15.0362 24.798C15.9078 25.1466 16.7793 25.4953 17.6509 25.4953C15.2105 23.7521 14.3389 20.4402 15.9078 17.8255C18.8711 21.3117 23.0546 23.5778 27.7611 23.7521C26.8895 20.2658 29.6786 16.7796 33.3392 16.7796C34.908 16.7796 36.4768 17.4768 37.5227 18.5227C38.9172 18.1741 40.1374 17.8254 41.1833 17.1282C40.8347 18.5227 39.9631 19.5686 38.7429 20.2658Z" fill="#DE4A19"/>
</svg>
