<svg width="88" height="87" viewBox="0 0 88 87" fill="none" xmlns="http://www.w3.org/2000/svg">
<g clip-path="url(#clip0_3_7721)">
<path d="M44.1085 86.5C67.9204 86.5 87.2238 67.1966 87.2238 43.3846C87.2238 19.5727 67.9204 0.269287 44.1085 0.269287C20.2966 0.269287 0.993164 19.5727 0.993164 43.3846C0.993164 67.1966 20.2966 86.5 44.1085 86.5Z" fill="#F0F0F0"/>
<path d="M9.89474 17.1351C6.508 21.5415 3.95426 26.6202 2.46729 32.1374H24.897L9.89474 17.1351Z" fill="#0052B4"/>
<path d="M85.7238 32.1374C84.2369 26.6203 81.683 21.5416 78.2964 17.1353L63.2944 32.1374H85.7238Z" fill="#0052B4"/>
<path d="M2.46729 54.6323C3.95443 60.1494 6.50817 65.2281 9.89474 69.6343L24.8965 54.6323H2.46729Z" fill="#0052B4"/>
<path d="M70.3527 9.18214C65.9463 5.7954 60.8678 3.24166 55.3506 1.75452V24.1841L70.3527 9.18214Z" fill="#0052B4"/>
<path d="M17.8496 77.5871C22.256 80.9738 27.3346 83.5276 32.8517 85.0147V62.5853L17.8496 77.5871Z" fill="#0052B4"/>
<path d="M32.8516 1.75452C27.3345 3.24166 22.2558 5.7954 17.8496 9.18197L32.8516 24.1839V1.75452Z" fill="#0052B4"/>
<path d="M55.3506 85.0147C60.8677 83.5276 65.9463 80.9738 70.3525 77.5873L55.3506 62.5853V85.0147Z" fill="#0052B4"/>
<path d="M63.2944 54.6323L78.2964 69.6344C81.683 65.2283 84.2369 60.1494 85.7238 54.6323H63.2944Z" fill="#0052B4"/>
<path d="M86.873 37.7609H49.7467H49.7465V0.634252C47.9055 0.394591 46.0287 0.269287 44.1227 0.269287C42.2163 0.269287 40.3398 0.394591 38.499 0.634252V37.7606V37.7608H1.37229C1.13263 39.6018 1.00732 41.4786 1.00732 43.3846C1.00732 45.291 1.13263 47.1675 1.37229 49.0083H38.4986H38.4988V86.135C40.3398 86.3746 42.2163 86.5 44.1227 86.5C46.0287 86.5 47.9055 86.3748 49.7463 86.135V49.0086V49.0085H86.873C87.1127 47.1675 87.238 45.291 87.238 43.3846C87.238 41.4786 87.1127 39.6018 86.873 37.7609Z" fill="#D80027"/>
<path d="M55.3789 54.6322L74.6185 73.8718C75.5033 72.9873 76.3474 72.0625 77.1528 71.1038L60.6811 54.6321H55.3789V54.6322Z" fill="#D80027"/>
<path d="M32.8784 54.6323H32.878L13.6387 73.8717C14.5232 74.7566 15.448 75.6007 16.4066 76.4061L32.8784 59.934V54.6323Z" fill="#D80027"/>
<path d="M32.8867 32.1374V32.1371L13.6472 12.8973C12.7623 13.7819 11.9182 14.7067 11.1128 15.6653L27.5847 32.1372H32.8867V32.1374Z" fill="#D80027"/>
<path d="M55.3789 32.1374L74.6186 12.8975C73.7341 12.0126 72.8093 11.1685 71.8506 10.3633L55.3789 26.8352V32.1374Z" fill="#D80027"/>
<circle cx="44.0964" cy="43.3864" r="43.1154" fill="url(#paint0_linear_3_7721)" style="mix-blend-mode:overlay"/>
</g>
<defs>
<linearGradient id="paint0_linear_3_7721" x1="87.2118" y1="0.271" x2="-15.1393" y2="57.8435" gradientUnits="userSpaceOnUse">
<stop stop-color="white" stop-opacity="0.3"/>
<stop offset="0.262741" stop-opacity="0.27"/>
<stop offset="0.369956" stop-color="white" stop-opacity="0.26"/>
<stop offset="0.487001" stop-opacity="0.55"/>
<stop offset="0.594445" stop-opacity="0.24"/>
<stop offset="0.736408" stop-color="white" stop-opacity="0.3"/>
<stop offset="0.901459" stop-color="#272727" stop-opacity="0.22"/>
<stop offset="1" stop-opacity="0.2"/>
</linearGradient>
<clipPath id="clip0_3_7721">
<rect width="86.2307" height="86.2307" fill="white" transform="translate(0.979492 0.269287)"/>
</clipPath>
</defs>
</svg>
