<svg width="56" height="56" viewBox="0 0 56 56" fill="none" xmlns="http://www.w3.org/2000/svg">
<path d="M32.5688 28.11L25.2476 23.9264V32.2935L32.5688 28.11Z" fill="#DE4A19"/>
<path fill-rule="evenodd" clip-rule="evenodd" d="M0.146362 28.11C0.146362 12.7066 12.6333 0.219727 28.0366 0.219727C43.44 0.219727 55.9269 12.7066 55.9269 28.11C55.9269 43.5133 43.44 56.0002 28.0366 56.0002C12.6333 56.0002 0.146362 43.5133 0.146362 28.11ZM38.8441 18.8713C40.0643 19.22 40.9359 20.0915 41.2845 21.3117C41.9818 23.5778 41.9817 28.11 41.9817 28.11C41.9817 28.11 41.9818 32.6422 41.4588 34.9082C41.1102 36.1284 40.2386 37 39.0184 37.3486C36.7523 37.8716 28.0366 37.8716 28.0366 37.8716C28.0366 37.8716 19.1466 37.8716 17.0548 37.3486C15.8346 37 14.9631 36.1284 14.6144 34.9082C14.0915 32.6422 14.0915 28.11 14.0915 28.11C14.0915 28.11 14.0915 23.5778 14.4401 21.3117C14.7887 20.0915 15.6603 19.22 16.8805 18.8713C19.1466 18.3484 27.8623 18.3484 27.8623 18.3484C27.8623 18.3484 36.7523 18.3484 38.8441 18.8713Z" fill="#DE4A19"/>
</svg>
